<?xml version="1.0" standalone="no"?>
<!DOCTYPE svg PUBLIC "-//W3C//DTD SVG 20010904//EN"
 "http://www.w3.org/TR/2001/REC-SVG-20010904/DTD/svg10.dtd">
<svg version="1.0" xmlns="http://www.w3.org/2000/svg"
 width="500.000000pt" height="606.000000pt" viewBox="0 0 500.000000 606.000000"
 preserveAspectRatio="xMidYMid meet">

<g transform="translate(0.000000,606.000000) scale(0.100000,-0.100000)"
fill="#000000" stroke="none">
<path d="M2355 6054 c-236 -24 -391 -67 -578 -160 -168 -84 -335 -219 -466
-378 -50 -61 -135 -201 -181 -299 -125 -265 -176 -507 -187 -884 -3 -123 -9
-223 -12 -223 -52 -2 -229 -36 -286 -55 -277 -93 -500 -312 -593 -582 -48
-141 -47 -101 -47 -1428 0 -1196 1 -1253 19 -1320 50 -186 124 -315 255 -446
131 -131 260 -205 446 -255 67 -18 133 -19 1775 -19 1642 0 1708 1 1775 19
186 50 315 124 446 255 131 132 205 261 255 446 18 67 19 124 19 1325 0 1365
3 1286 -53 1440 -96 263 -330 487 -597 569 -54 17 -231 49 -276 51 -3 0 -9 98
-12 218 -10 375 -63 625 -187 889 -211 448 -585 732 -1075 818 -88 15 -360 27
-440 19z m340 -679 c176 -34 289 -90 401 -200 202 -198 293 -479 294 -907 l0
-158 -890 0 -890 0 0 153 c0 640 238 1020 695 1113 87 17 295 17 390 -1z
m1479 -1830 c137 -42 245 -161 275 -303 16 -74 16 -2299 0 -2374 -34 -160
-141 -271 -302 -314 -78 -21 -3216 -21 -3294 0 -161 43 -268 154 -302 314 -16
75 -16 2300 0 2374 30 139 127 250 262 298 50 18 121 19 1682 19 1417 1 1636
-1 1679 -14z"/>
<path d="M2403 2710 c-168 -34 -312 -189 -343 -370 -26 -152 45 -323 174 -420
l46 -34 0 -278 c0 -255 2 -282 19 -316 39 -76 124 -132 201 -132 77 0 162 56
201 132 17 34 19 61 19 316 l0 278 46 34 c129 97 200 268 174 420 -43 257
-280 420 -537 370z"/>
</g>
</svg>
